<svg width="114" height="40" viewBox="0 0 114 40" fill="none" xmlns="http://www.w3.org/2000/svg">
<rect width="113.571" height="40" rx="4" fill="#E5ECF4"/>
<path fill-rule="evenodd" clip-rule="evenodd" d="M67.4865 30.6994C67.0389 30.8422 66.5341 30.9137 65.9722 30.9137C65.3151 30.9137 64.7365 30.8208 64.2365 30.6351C63.7365 30.4494 63.3199 30.1922 62.9865 29.8637C62.6532 29.5351 62.4008 29.1494 62.2294 28.7065C62.058 28.2637 61.9722 27.7803 61.9722 27.2565V26.828H63.858V27.1708C63.858 27.7708 64.0318 28.2494 64.3794 28.6065C64.727 28.9637 65.2675 29.1422 66.0008 29.1422C66.5722 29.1422 66.996 29.0184 67.2722 28.7708C67.5484 28.5232 67.6865 28.228 67.6865 27.8851C67.6865 27.7232 67.658 27.5684 67.6008 27.4208C67.5437 27.2732 67.4437 27.1399 67.3008 27.0208C67.158 26.9018 66.9627 26.7946 66.7151 26.6994C66.4675 26.6041 66.1532 26.5232 65.7722 26.4565C65.2675 26.3708 64.8056 26.2589 64.3865 26.1208C63.9675 25.9827 63.6032 25.7994 63.2937 25.5708C62.9841 25.3422 62.7437 25.0565 62.5722 24.7137C62.4008 24.3708 62.3151 23.9518 62.3151 23.4565V23.3708C62.3151 22.9613 62.3984 22.5827 62.5651 22.2351C62.7318 21.8875 62.9651 21.5851 63.2651 21.328C63.5651 21.0708 63.927 20.8708 64.3508 20.728C64.7746 20.5851 65.2484 20.5137 65.7722 20.5137C66.3627 20.5137 66.8865 20.597 67.3437 20.7637C67.8008 20.9303 68.1841 21.1565 68.4937 21.4422C68.8032 21.728 69.0365 22.0565 69.1937 22.428C69.3508 22.7994 69.4294 23.1899 69.4294 23.5994V24.1137H67.5437V23.7708C67.5437 23.3708 67.3889 23.0232 67.0794 22.728C66.7699 22.4327 66.3341 22.2851 65.7722 22.2851C65.296 22.2851 64.9199 22.3827 64.6437 22.578C64.3675 22.7732 64.2294 23.0375 64.2294 23.3708C64.2294 23.5422 64.2627 23.697 64.3294 23.8351C64.396 23.9732 64.5127 24.097 64.6794 24.2065C64.8461 24.3161 65.0651 24.4137 65.3365 24.4994C65.608 24.5851 65.9532 24.6661 66.3722 24.7422C67.4199 24.9327 68.2199 25.2518 68.7722 25.6994C69.3246 26.147 69.6008 26.8089 69.6008 27.6851V27.8565C69.6008 28.3232 69.5175 28.7446 69.3508 29.1208C69.1841 29.497 68.9437 29.8184 68.6294 30.0851C68.3151 30.3518 67.9341 30.5565 67.4865 30.6994ZM39.3284 30.7137L39.8141 28.5708H43.2141L43.6998 30.7137H45.6712L43.2855 20.7137H39.7426L37.3569 30.7137H39.3284ZM42.7998 26.7708H40.2141L41.3855 21.6565H41.6426L42.7998 26.7708ZM47.7906 29.6851V33.5708H45.9906V23.628H47.7906V24.6565H48.0478C48.2382 24.2661 48.5144 23.9637 48.8763 23.7494C49.2382 23.5351 49.7001 23.428 50.262 23.428C50.6811 23.428 51.0787 23.5089 51.4549 23.6708C51.8311 23.8327 52.1597 24.0684 52.4406 24.378C52.7216 24.6875 52.9454 25.0661 53.112 25.5137C53.2787 25.9613 53.362 26.4708 53.362 27.0422V27.2994C53.362 27.8803 53.2811 28.3946 53.1192 28.8422C52.9573 29.2899 52.7382 29.6684 52.462 29.978C52.1858 30.2875 51.8597 30.5208 51.4835 30.678C51.1073 30.8351 50.7001 30.9137 50.262 30.9137C49.9382 30.9137 49.6573 30.8803 49.4192 30.8137C49.1811 30.747 48.9739 30.6565 48.7978 30.5422C48.6216 30.428 48.4739 30.297 48.3549 30.1494C48.2358 30.0018 48.1335 29.847 48.0478 29.6851H47.7906ZM49.6763 29.1994C49.1144 29.1994 48.6597 29.0208 48.312 28.6637C47.9644 28.3065 47.7906 27.8375 47.7906 27.2565V27.0851C47.7906 26.5041 47.9644 26.0351 48.312 25.678C48.6597 25.3208 49.1144 25.1422 49.6763 25.1422C50.2382 25.1422 50.693 25.3161 51.0406 25.6637C51.3882 26.0113 51.562 26.4851 51.562 27.0851V27.2565C51.562 27.8565 51.3882 28.3303 51.0406 28.678C50.693 29.0256 50.2382 29.1994 49.6763 29.1994ZM55.8957 29.6851V33.5708H54.0957V23.628H55.8957V24.6565H56.1529C56.3433 24.2661 56.6195 23.9637 56.9814 23.7494C57.3433 23.5351 57.8052 23.428 58.3671 23.428C58.7862 23.428 59.1838 23.5089 59.56 23.6708C59.9362 23.8327 60.2648 24.0684 60.5457 24.378C60.8267 24.6875 61.0505 25.0661 61.2171 25.5137C61.3838 25.9613 61.4671 26.4708 61.4671 27.0422V27.2994C61.4671 27.8803 61.3862 28.3946 61.2243 28.8422C61.0624 29.2899 60.8433 29.6684 60.5671 29.978C60.2909 30.2875 59.9648 30.5208 59.5886 30.678C59.2124 30.8351 58.8052 30.9137 58.3671 30.9137C58.0433 30.9137 57.7624 30.8803 57.5243 30.8137C57.2862 30.747 57.079 30.6565 56.9029 30.5422C56.7267 30.428 56.579 30.297 56.46 30.1494C56.3409 30.0018 56.2386 29.847 56.1529 29.6851H55.8957ZM57.7814 29.1994C57.2195 29.1994 56.7648 29.0208 56.4171 28.6637C56.0695 28.3065 55.8957 27.8375 55.8957 27.2565V27.0851C55.8957 26.5041 56.0695 26.0351 56.4171 25.678C56.7648 25.3208 57.2195 25.1422 57.7814 25.1422C58.3433 25.1422 58.7981 25.3161 59.1457 25.6637C59.4933 26.0113 59.6671 26.4851 59.6671 27.0851V27.2565C59.6671 27.8565 59.4933 28.3303 59.1457 28.678C58.7981 29.0256 58.3433 29.1994 57.7814 29.1994ZM76.6773 30.7137V28.9994H74.7631C74.5059 28.9994 74.3773 28.8565 74.3773 28.5708V25.3422H76.9345V23.628H74.3773V20.7137H72.5773V23.628H70.4773V25.3422H72.5773V29.5994C72.5773 29.9232 72.6797 30.1899 72.8845 30.3994C73.0892 30.6089 73.3535 30.7137 73.6773 30.7137H76.6773ZM83.4324 30.6708C82.9896 30.8327 82.5253 30.9137 82.0396 30.9137C81.5539 30.9137 81.0896 30.8327 80.6467 30.6708C80.2039 30.5089 79.811 30.2732 79.4682 29.9637C79.1253 29.6541 78.8539 29.2732 78.6539 28.8208C78.4539 28.3684 78.3539 27.847 78.3539 27.2565V27.0851C78.3539 26.5041 78.4539 25.9875 78.6539 25.5351C78.8539 25.0827 79.1253 24.6994 79.4682 24.3851C79.811 24.0708 80.2039 23.8327 80.6467 23.6708C81.0896 23.5089 81.5539 23.428 82.0396 23.428C82.5253 23.428 82.9896 23.5089 83.4324 23.6708C83.8753 23.8327 84.2682 24.0708 84.611 24.3851C84.9539 24.6994 85.2253 25.0827 85.4253 25.5351C85.6253 25.9875 85.7253 26.5041 85.7253 27.0851V27.2565C85.7253 27.847 85.6253 28.3684 85.4253 28.8208C85.2253 29.2732 84.9539 29.6541 84.611 29.9637C84.2682 30.2732 83.8753 30.5089 83.4324 30.6708ZM82.0396 29.1994C81.7824 29.1994 81.5396 29.1565 81.311 29.0708C81.0824 28.9851 80.8824 28.8613 80.711 28.6994C80.5396 28.5375 80.4039 28.3399 80.3039 28.1065C80.2039 27.8732 80.1539 27.6089 80.1539 27.3137V27.028C80.1539 26.7327 80.2039 26.4684 80.3039 26.2351C80.4039 26.0018 80.5396 25.8041 80.711 25.6422C80.8824 25.4803 81.0824 25.3565 81.311 25.2708C81.5396 25.1851 81.7824 25.1422 82.0396 25.1422C82.2967 25.1422 82.5396 25.1851 82.7682 25.2708C82.9967 25.3565 83.1967 25.4803 83.3682 25.6422C83.5396 25.8041 83.6753 26.0018 83.7753 26.2351C83.8753 26.4684 83.9253 26.7327 83.9253 27.028V27.3137C83.9253 27.6089 83.8753 27.8732 83.7753 28.1065C83.6753 28.3399 83.5396 28.5375 83.3682 28.6994C83.1967 28.8613 82.9967 28.9851 82.7682 29.0708C82.5396 29.1565 82.2967 29.1994 82.0396 29.1994ZM91.259 28.9994V30.7137H86.3733V28.9994H87.8304V25.3422H86.5447V23.628H89.5447V24.6565H89.8018C89.9352 24.2661 90.1614 23.9637 90.4804 23.7494C90.7994 23.5351 91.1828 23.428 91.6304 23.428C92.3352 23.428 92.9018 23.6494 93.3304 24.0922C93.759 24.5351 93.9733 25.2089 93.9733 26.1137V26.428L92.1161 26.5994V26.3994C92.1161 26.0089 92.0161 25.697 91.8161 25.4637C91.6161 25.2303 91.3161 25.1137 90.9161 25.1137C90.5161 25.1137 90.2018 25.2518 89.9733 25.528C89.7447 25.8041 89.6304 26.1994 89.6304 26.7137V28.9994H91.259ZM98.3212 30.9137C98.7879 30.9137 99.195 30.8613 99.5426 30.7565C99.8903 30.6518 100.186 30.5184 100.428 30.3565C100.671 30.1946 100.869 30.0161 101.021 29.8208C101.174 29.6256 101.293 29.4375 101.378 29.2565L99.8355 28.3994C99.7307 28.6184 99.5593 28.8065 99.3212 28.9637C99.0831 29.1208 98.7403 29.1994 98.2926 29.1994C98.0641 29.1994 97.8474 29.1637 97.6426 29.0922C97.4379 29.0208 97.2569 28.9208 97.0998 28.7922C96.9426 28.6637 96.8188 28.5113 96.7284 28.3351C96.6379 28.1589 96.5879 27.9661 96.5784 27.7565H101.778V26.7994C101.778 26.428 101.712 26.0446 101.578 25.6494C101.445 25.2541 101.236 24.8922 100.95 24.5637C100.664 24.2351 100.302 23.9637 99.8641 23.7494C99.426 23.5351 98.9022 23.428 98.2926 23.428C97.7974 23.428 97.3331 23.5161 96.8998 23.6922C96.4665 23.8684 96.0879 24.1137 95.7641 24.428C95.4403 24.7422 95.1855 25.1232 94.9998 25.5708C94.8141 26.0184 94.7212 26.5137 94.7212 27.0565V27.1422C94.7212 27.7327 94.8093 28.2613 94.9855 28.728C95.1617 29.1946 95.4093 29.5899 95.7284 29.9137C96.0474 30.2375 96.426 30.4851 96.8641 30.6565C97.3022 30.828 97.7879 30.9137 98.3212 30.9137ZM96.6069 26.2137H99.9498C99.8926 25.8803 99.7141 25.6041 99.4141 25.3851C99.1141 25.1661 98.7355 25.0565 98.2784 25.0565C97.8212 25.0565 97.4498 25.1732 97.1641 25.4065C96.8784 25.6399 96.6926 25.9089 96.6069 26.2137Z" fill="#495567"/>
<path fill-rule="evenodd" clip-rule="evenodd" d="M51.8255 9.60338C51.7422 9.63909 51.6553 9.65695 51.5648 9.65695C51.4696 9.65695 51.3815 9.63909 51.3005 9.60338C51.2196 9.56766 51.1481 9.52004 51.0862 9.46052C51.0243 9.401 50.9755 9.32957 50.9398 9.24623C50.9041 9.1629 50.8862 9.07361 50.8862 8.97838C50.8862 8.88314 50.9041 8.79385 50.9398 8.71052C50.9755 8.62719 51.0243 8.55576 51.0862 8.49623C51.1481 8.43671 51.2196 8.38909 51.3005 8.35338C51.3815 8.31766 51.4696 8.2998 51.5648 8.2998C51.6553 8.2998 51.7422 8.31766 51.8255 8.35338C51.9088 8.38909 51.9815 8.43671 52.0434 8.49623C52.1053 8.55576 52.1541 8.62719 52.1898 8.71052C52.2255 8.79385 52.2434 8.88314 52.2434 8.97838C52.2434 9.07361 52.2255 9.1629 52.1898 9.24623C52.1541 9.32957 52.1053 9.401 52.0434 9.46052C51.9815 9.52004 51.9088 9.56766 51.8255 9.60338ZM38.4786 12.4998L38.2357 13.5712H37.25L38.4429 8.57123H40.2143L41.4071 13.5712H40.4214L40.1786 12.4998H38.4786ZM38.6786 11.5998H39.9714L39.3929 9.04266H39.2643L38.6786 11.5998ZM44.2311 13.5712L45.2454 10.0284H44.274L43.4383 13.1427H43.3097L42.474 10.0284H41.5026L42.5168 13.5712H44.2311ZM47.698 13.5319C47.5265 13.6248 47.3265 13.6712 47.098 13.6712C46.8837 13.6712 46.6825 13.6308 46.4944 13.5498C46.3063 13.4689 46.1408 13.3498 45.998 13.1927C45.8551 13.0355 45.742 12.845 45.6587 12.6212C45.5753 12.3974 45.5337 12.1427 45.5337 11.8569V11.7427C45.5337 11.4617 45.5741 11.2093 45.6551 10.9855C45.7361 10.7617 45.8456 10.5712 45.9837 10.4141C46.1218 10.2569 46.2825 10.1367 46.4658 10.0534C46.6491 9.97004 46.8456 9.92838 47.0551 9.92838C47.3075 9.92838 47.5111 9.97123 47.6658 10.0569C47.8206 10.1427 47.9432 10.276 48.0337 10.4569H48.1622V10.0284H49.0622V12.4998C49.0622 12.6427 49.1265 12.7141 49.2551 12.7141H49.3908V13.5712H48.7765C48.6146 13.5712 48.4825 13.5236 48.3801 13.4284C48.2777 13.3331 48.2265 13.2093 48.2265 13.0569H48.098C48.0027 13.2808 47.8694 13.4391 47.698 13.5319ZM47.298 12.8141C47.0361 12.8141 46.8265 12.7272 46.6694 12.5534C46.5122 12.3796 46.4337 12.1427 46.4337 11.8427V11.7569C46.4337 11.4569 46.5122 11.22 46.6694 11.0462C46.8265 10.8724 47.0361 10.7855 47.298 10.7855C47.5599 10.7855 47.7694 10.8724 47.9265 11.0462C48.0837 11.22 48.1622 11.4569 48.1622 11.7569V11.8427C48.1622 12.1427 48.0837 12.3796 47.9265 12.5534C47.7694 12.7272 47.5599 12.8141 47.298 12.8141ZM53.0505 12.7141H52.0219V10.0284H50.0077V10.8855H51.1219V12.7141H49.9219V13.5712H53.0505V12.7141ZM56.0316 12.7141H57.1888V13.5712H53.8888V12.7141H55.1316V9.42838H53.9316V8.57123H56.0316V12.7141ZM59.2556 13.6712C59.4842 13.6712 59.6842 13.6248 59.8556 13.5319C60.027 13.4391 60.1604 13.2808 60.2556 13.0569H60.3842C60.3842 13.2093 60.4354 13.3331 60.5378 13.4284C60.6401 13.5236 60.7723 13.5712 60.9342 13.5712H61.5485V12.7141H61.4128C61.2842 12.7141 61.2199 12.6427 61.2199 12.4998V10.0284H60.3199V10.4569H60.1913C60.1008 10.276 59.9782 10.1427 59.8235 10.0569C59.6687 9.97123 59.4651 9.92838 59.2128 9.92838C59.0032 9.92838 58.8068 9.97004 58.6235 10.0534C58.4401 10.1367 58.2794 10.2569 58.1413 10.4141C58.0032 10.5712 57.8937 10.7617 57.8128 10.9855C57.7318 11.2093 57.6913 11.4617 57.6913 11.7427V11.8569C57.6913 12.1427 57.733 12.3974 57.8163 12.6212C57.8997 12.845 58.0128 13.0355 58.1556 13.1927C58.2985 13.3498 58.4639 13.4689 58.652 13.5498C58.8401 13.6308 59.0413 13.6712 59.2556 13.6712ZM58.827 12.5534C58.9842 12.7272 59.1937 12.8141 59.4556 12.8141C59.7175 12.8141 59.927 12.7272 60.0842 12.5534C60.2413 12.3796 60.3199 12.1427 60.3199 11.8427V11.7569C60.3199 11.4569 60.2413 11.22 60.0842 11.0462C59.927 10.8724 59.7175 10.7855 59.4556 10.7855C59.1937 10.7855 58.9842 10.8724 58.827 11.0462C58.6699 11.22 58.5913 11.4569 58.5913 11.7569V11.8427C58.5913 12.1427 58.6699 12.3796 58.827 12.5534ZM64.001 13.6712C64.2201 13.6712 64.4236 13.6319 64.6117 13.5534C64.7998 13.4748 64.9629 13.3581 65.101 13.2034C65.2391 13.0486 65.3486 12.8593 65.4296 12.6355C65.5105 12.4117 65.551 12.1546 65.551 11.8641V11.7355C65.551 11.4498 65.5094 11.195 65.426 10.9712C65.3427 10.7474 65.2308 10.5581 65.0903 10.4034C64.9498 10.2486 64.7855 10.1308 64.5975 10.0498C64.4094 9.96885 64.2105 9.92838 64.001 9.92838C63.7201 9.92838 63.4891 9.98195 63.3082 10.0891C63.1272 10.1962 62.9891 10.3474 62.8939 10.5427H62.7653V8.57123H61.8653V13.5712H62.7653V13.0569H62.8939C62.9367 13.1379 62.9879 13.2153 63.0474 13.2891C63.107 13.3629 63.1808 13.4284 63.2689 13.4855C63.357 13.5427 63.4605 13.5879 63.5796 13.6212C63.6986 13.6546 63.8391 13.6712 64.001 13.6712ZM63.026 12.5462C63.1998 12.7248 63.4272 12.8141 63.7082 12.8141C63.9891 12.8141 64.2165 12.7272 64.3903 12.5534C64.5641 12.3796 64.651 12.1427 64.651 11.8427V11.7569C64.651 11.4569 64.5641 11.22 64.3903 11.0462C64.2165 10.8724 63.9891 10.7855 63.7082 10.7855C63.4272 10.7855 63.1998 10.8748 63.026 11.0534C62.8522 11.2319 62.7653 11.4665 62.7653 11.7569V11.8427C62.7653 12.1331 62.8522 12.3677 63.026 12.5462ZM69.3464 12.7141H68.1893V8.57123H66.0893V9.42838H67.2893V12.7141H66.0464V13.5712H69.3464V12.7141ZM72.3954 13.5927C72.2216 13.645 72.018 13.6712 71.7847 13.6712C71.518 13.6712 71.2752 13.6284 71.0561 13.5427C70.8371 13.4569 70.6478 13.3331 70.4883 13.1712C70.3287 13.0093 70.2049 12.8117 70.1168 12.5784C70.0287 12.345 69.9847 12.0808 69.9847 11.7855V11.7427C69.9847 11.4712 70.0311 11.2236 70.124 10.9998C70.2168 10.776 70.3442 10.5855 70.5061 10.4284C70.668 10.2712 70.8573 10.1486 71.074 10.0605C71.2906 9.97242 71.5228 9.92838 71.7704 9.92838C72.0752 9.92838 72.3371 9.98195 72.5561 10.0891C72.7752 10.1962 72.9561 10.3319 73.099 10.4962C73.2418 10.6605 73.3466 10.8415 73.4133 11.0391C73.4799 11.2367 73.5133 11.4284 73.5133 11.6141V12.0927H70.9133C70.918 12.1974 70.943 12.2939 70.9883 12.3819C71.0335 12.47 71.0954 12.5462 71.174 12.6105C71.2526 12.6748 71.343 12.7248 71.4454 12.7605C71.5478 12.7962 71.6561 12.8141 71.7704 12.8141C71.9942 12.8141 72.1656 12.7748 72.2847 12.6962C72.4037 12.6177 72.4895 12.5236 72.5418 12.4141L73.3133 12.8427C73.2704 12.9331 73.2109 13.0272 73.1347 13.1248C73.0585 13.2224 72.9597 13.3117 72.8383 13.3927C72.7168 13.4736 72.5692 13.5403 72.3954 13.5927ZM72.599 11.3212H70.9276C70.9704 11.1689 71.0633 11.0343 71.2061 10.9177C71.349 10.801 71.5347 10.7427 71.7633 10.7427C71.9918 10.7427 72.1811 10.7974 72.3311 10.9069C72.4811 11.0165 72.5704 11.1546 72.599 11.3212ZM80.5505 13.5498C80.3291 13.6308 80.0969 13.6712 79.8541 13.6712C79.6112 13.6712 79.3791 13.6308 79.1576 13.5498C78.9362 13.4689 78.7398 13.351 78.5684 13.1962C78.3969 13.0415 78.2612 12.851 78.1612 12.6248C78.0612 12.3986 78.0112 12.1379 78.0112 11.8427V11.7569C78.0112 11.4665 78.0612 11.2081 78.1612 10.9819C78.2612 10.7558 78.3969 10.5641 78.5684 10.4069C78.7398 10.2498 78.9362 10.1308 79.1576 10.0498C79.3791 9.96885 79.6112 9.92838 79.8541 9.92838C80.0969 9.92838 80.3291 9.96885 80.5505 10.0498C80.7719 10.1308 80.9684 10.2498 81.1398 10.4069C81.3112 10.5641 81.4469 10.7558 81.5469 10.9819C81.6469 11.2081 81.6969 11.4665 81.6969 11.7569V11.8427C81.6969 12.1379 81.6469 12.3986 81.5469 12.6248C81.4469 12.851 81.3112 13.0415 81.1398 13.1962C80.9684 13.351 80.7719 13.4689 80.5505 13.5498ZM79.8541 12.8141C79.7255 12.8141 79.6041 12.7927 79.4898 12.7498C79.3755 12.7069 79.2755 12.645 79.1898 12.5641C79.1041 12.4831 79.0362 12.3843 78.9862 12.2677C78.9362 12.151 78.9112 12.0189 78.9112 11.8712V11.7284C78.9112 11.5808 78.9362 11.4486 78.9862 11.3319C79.0362 11.2153 79.1041 11.1165 79.1898 11.0355C79.2755 10.9546 79.3755 10.8927 79.4898 10.8498C79.6041 10.8069 79.7255 10.7855 79.8541 10.7855C79.9827 10.7855 80.1041 10.8069 80.2184 10.8498C80.3327 10.8927 80.4327 10.9546 80.5184 11.0355C80.6041 11.1165 80.6719 11.2153 80.7219 11.3319C80.7719 11.4486 80.7969 11.5808 80.7969 11.7284V11.8712C80.7969 12.0189 80.7719 12.151 80.7219 12.2677C80.6719 12.3843 80.6041 12.4831 80.5184 12.5641C80.4327 12.645 80.3327 12.7069 80.2184 12.7498C80.1041 12.7927 79.9827 12.8141 79.8541 12.8141ZM83.1781 11.7284V13.5712H82.2781V10.0284H83.1781V10.5569H83.3066C83.3876 10.3569 83.5185 10.2022 83.6995 10.0927C83.8804 9.98314 84.0923 9.92838 84.3352 9.92838C84.5066 9.92838 84.6673 9.95576 84.8173 10.0105C84.9673 10.0653 85.0995 10.1498 85.2138 10.2641C85.3281 10.3784 85.4173 10.5236 85.4816 10.6998C85.5459 10.876 85.5781 11.0855 85.5781 11.3284V13.5712H84.6781V11.5569C84.6781 11.3046 84.6173 11.1058 84.4959 10.9605C84.3745 10.8153 84.1995 10.7427 83.9709 10.7427C83.7043 10.7427 83.5054 10.8319 83.3745 11.0105C83.2435 11.1891 83.1781 11.4284 83.1781 11.7284ZM93.3832 12.7141H92.426C92.2975 12.7141 92.2332 12.6427 92.2332 12.4998V10.8855H93.5117V10.0284H92.2332V8.57123H91.3332V10.0284H90.2832V10.8855H91.3332V13.0141C91.3332 13.176 91.3844 13.3093 91.4867 13.4141C91.5891 13.5189 91.7213 13.5712 91.8832 13.5712H93.3832V12.7141ZM95.35 11.7284V13.5712H94.45V8.57123H95.35V10.5998H95.4786C95.569 10.3855 95.7024 10.22 95.8786 10.1034C96.0548 9.98671 96.2714 9.92838 96.5286 9.92838C96.7048 9.92838 96.8667 9.95695 97.0143 10.0141C97.1619 10.0712 97.2905 10.1569 97.4 10.2712C97.5095 10.3855 97.5952 10.5319 97.6571 10.7105C97.719 10.8891 97.75 11.0998 97.75 11.3427V13.5712H96.85V11.5569C96.85 11.3046 96.7893 11.1058 96.6679 10.9605C96.5464 10.8153 96.3714 10.7427 96.1429 10.7427C95.8762 10.7427 95.6774 10.8319 95.5464 11.0105C95.4155 11.1891 95.35 11.4284 95.35 11.7284ZM100.153 13.6712C100.386 13.6712 100.589 13.645 100.763 13.5927C100.937 13.5403 101.085 13.4736 101.206 13.3927C101.328 13.3117 101.426 13.2224 101.503 13.1248C101.579 13.0272 101.638 12.9331 101.681 12.8427L100.91 12.4141C100.857 12.5236 100.772 12.6177 100.653 12.6962C100.534 12.7748 100.362 12.8141 100.138 12.8141C100.024 12.8141 99.9156 12.7962 99.8133 12.7605C99.7109 12.7248 99.6204 12.6748 99.5418 12.6105C99.4633 12.5462 99.4014 12.47 99.3561 12.3819C99.3109 12.2939 99.2859 12.1974 99.2811 12.0927H101.881V11.6141C101.881 11.4284 101.848 11.2367 101.781 11.0391C101.714 10.8415 101.61 10.6605 101.467 10.4962C101.324 10.3319 101.143 10.1962 100.924 10.0891C100.705 9.98195 100.443 9.92838 100.138 9.92838C99.8906 9.92838 99.6585 9.97242 99.4418 10.0605C99.2252 10.1486 99.0359 10.2712 98.874 10.4284C98.7121 10.5855 98.5847 10.776 98.4918 10.9998C98.399 11.2236 98.3526 11.4712 98.3526 11.7427V11.7855C98.3526 12.0808 98.3966 12.345 98.4847 12.5784C98.5728 12.8117 98.6966 13.0093 98.8561 13.1712C99.0156 13.3331 99.2049 13.4569 99.424 13.5427C99.643 13.6284 99.8859 13.6712 100.153 13.6712ZM99.2954 11.3212H100.967C100.938 11.1546 100.849 11.0165 100.699 10.9069C100.549 10.7974 100.36 10.7427 100.131 10.7427C99.9025 10.7427 99.7168 10.801 99.574 10.9177C99.4311 11.0343 99.3383 11.1689 99.2954 11.3212Z" fill="#495567"/>
<path d="M24.2979 14.667C25.6764 14.6671 27.1361 15.4124 28.1748 16.6973C24.7695 18.5502 25.3211 23.3773 28.7617 24.6699C28.2888 25.7106 28.0619 26.1749 27.4521 27.0967C26.6012 28.3828 25.4026 29.9855 23.915 29.9971C22.5947 30.0108 22.254 29.1443 20.4619 29.1543C18.6702 29.1632 18.2973 30.0125 16.9746 30C15.4883 29.9875 14.352 28.541 13.501 27.2549C11.1229 23.6603 10.8715 19.4399 12.3389 17.1953C13.3827 15.6013 15.0291 14.6689 16.5752 14.6689C18.149 14.669 19.1396 15.5264 20.4434 15.5264C21.7078 15.5263 22.4779 14.667 24.2979 14.667ZM24.0596 10C24.2332 11.1778 23.753 12.3319 23.1191 13.1475C22.4415 14.0233 21.2722 14.7002 20.1406 14.665C19.9343 13.537 20.4639 12.3763 21.1074 11.5947C21.813 10.7332 23.0237 10.0715 24.0596 10Z" fill="#495567"/>
</svg>
