<svg width="130" height="40" viewBox="0 0 130 40" fill="none" xmlns="http://www.w3.org/2000/svg">
<rect width="130" height="40" rx="4" fill="#E5ECF4"/>
<path fill-rule="evenodd" clip-rule="evenodd" d="M42.5143 30.5351C42.1905 30.7875 41.7048 30.9137 41.0572 30.9137C40.6001 30.9137 40.1715 30.828 39.7715 30.6565C39.3715 30.4851 39.0239 30.2303 38.7286 29.8922C38.4334 29.5541 38.2001 29.1351 38.0286 28.6351C37.8572 28.1351 37.7715 27.5518 37.7715 26.8851V24.5422C37.7715 23.8946 37.8643 23.3208 38.0501 22.8208C38.2358 22.3208 38.4929 21.8994 38.8215 21.5565C39.1501 21.2137 39.5429 20.9541 40.0001 20.778C40.4572 20.6018 40.962 20.5137 41.5143 20.5137C42.0858 20.5137 42.5953 20.6065 43.0429 20.7922C43.4905 20.978 43.8715 21.2351 44.1858 21.5637C44.5001 21.8922 44.7382 22.278 44.9001 22.7208C45.062 23.1637 45.1429 23.6375 45.1429 24.1422V24.3137H43.2572V24.1422C43.2572 23.5422 43.1024 23.0875 42.7929 22.778C42.4834 22.4684 42.0477 22.3137 41.4858 22.3137C40.9524 22.3137 40.5143 22.4922 40.1715 22.8494C39.8286 23.2065 39.6572 23.8184 39.6572 24.6851V26.7994C39.6572 28.3422 40.2858 29.1137 41.5429 29.1137C42.1048 29.1137 42.531 28.9637 42.8215 28.6637C43.112 28.3637 43.2572 27.9613 43.2572 27.4565H40.8572V25.6565H45.1429V30.7137H43.4286V29.5994H43.1715C43.0572 29.9708 42.8382 30.2827 42.5143 30.5351ZM51.0123 30.6708C50.5694 30.8327 50.1052 30.9137 49.6194 30.9137C49.1337 30.9137 48.6694 30.8327 48.2266 30.6708C47.7837 30.5089 47.3909 30.2732 47.048 29.9637C46.7052 29.6541 46.4337 29.2732 46.2337 28.8208C46.0337 28.3684 45.9337 27.847 45.9337 27.2565V27.0851C45.9337 26.5041 46.0337 25.9875 46.2337 25.5351C46.4337 25.0827 46.7052 24.6994 47.048 24.3851C47.3909 24.0708 47.7837 23.8327 48.2266 23.6708C48.6694 23.5089 49.1337 23.428 49.6194 23.428C50.1052 23.428 50.5694 23.5089 51.0123 23.6708C51.4552 23.8327 51.848 24.0708 52.1909 24.3851C52.5337 24.6994 52.8052 25.0827 53.0052 25.5351C53.2052 25.9875 53.3052 26.5041 53.3052 27.0851V27.2565C53.3052 27.847 53.2052 28.3684 53.0052 28.8208C52.8052 29.2732 52.5337 29.6541 52.1909 29.9637C51.848 30.2732 51.4552 30.5089 51.0123 30.6708ZM49.6194 29.1994C49.3623 29.1994 49.1194 29.1565 48.8909 29.0708C48.6623 28.9851 48.4623 28.8613 48.2909 28.6994C48.1194 28.5375 47.9837 28.3399 47.8837 28.1065C47.7837 27.8732 47.7337 27.6089 47.7337 27.3137V27.028C47.7337 26.7327 47.7837 26.4684 47.8837 26.2351C47.9837 26.0018 48.1194 25.8041 48.2909 25.6422C48.4623 25.4803 48.6623 25.3565 48.8909 25.2708C49.1194 25.1851 49.3623 25.1422 49.6194 25.1422C49.8766 25.1422 50.1194 25.1851 50.348 25.2708C50.5766 25.3565 50.7766 25.4803 50.948 25.6422C51.1194 25.8041 51.2552 26.0018 51.3552 26.2351C51.4552 26.4684 51.5052 26.7327 51.5052 27.028V27.3137C51.5052 27.6089 51.4552 27.8732 51.3552 28.1065C51.2552 28.3399 51.1194 28.5375 50.948 28.6994C50.7766 28.8613 50.5766 28.9851 50.348 29.0708C50.1194 29.1565 49.8766 29.1994 49.6194 29.1994ZM59.1174 30.6708C58.6745 30.8327 58.2103 30.9137 57.7245 30.9137C57.2388 30.9137 56.7745 30.8327 56.3317 30.6708C55.8888 30.5089 55.496 30.2732 55.1531 29.9637C54.8103 29.6541 54.5388 29.2732 54.3388 28.8208C54.1388 28.3684 54.0388 27.847 54.0388 27.2565V27.0851C54.0388 26.5041 54.1388 25.9875 54.3388 25.5351C54.5388 25.0827 54.8103 24.6994 55.1531 24.3851C55.496 24.0708 55.8888 23.8327 56.3317 23.6708C56.7745 23.5089 57.2388 23.428 57.7245 23.428C58.2103 23.428 58.6745 23.5089 59.1174 23.6708C59.5603 23.8327 59.9531 24.0708 60.296 24.3851C60.6388 24.6994 60.9103 25.0827 61.1103 25.5351C61.3103 25.9875 61.4103 26.5041 61.4103 27.0851V27.2565C61.4103 27.847 61.3103 28.3684 61.1103 28.8208C60.9103 29.2732 60.6388 29.6541 60.296 29.9637C59.9531 30.2732 59.5603 30.5089 59.1174 30.6708ZM57.7245 29.1994C57.4674 29.1994 57.2245 29.1565 56.996 29.0708C56.7674 28.9851 56.5674 28.8613 56.396 28.6994C56.2245 28.5375 56.0888 28.3399 55.9888 28.1065C55.8888 27.8732 55.8388 27.6089 55.8388 27.3137V27.028C55.8388 26.7327 55.8888 26.4684 55.9888 26.2351C56.0888 26.0018 56.2245 25.8041 56.396 25.6422C56.5674 25.4803 56.7674 25.3565 56.996 25.2708C57.2245 25.1851 57.4674 25.1422 57.7245 25.1422C57.9817 25.1422 58.2245 25.1851 58.4531 25.2708C58.6817 25.3565 58.8817 25.4803 59.0531 25.6422C59.2245 25.8041 59.3603 26.0018 59.4603 26.2351C59.5603 26.4684 59.6103 26.7327 59.6103 27.028V27.3137C59.6103 27.6089 59.5603 27.8732 59.4603 28.1065C59.3603 28.3399 59.2245 28.5375 59.0531 28.6994C58.8817 28.8613 58.6817 28.9851 58.4531 29.0708C58.2245 29.1565 57.9817 29.1994 57.7245 29.1994ZM69.1225 33.2565C68.9177 33.4661 68.6535 33.5708 68.3296 33.5708H63.5582V31.8565H67.2439C67.5011 31.8565 67.6296 31.7137 67.6296 31.428V29.6851H67.3725C67.2963 29.847 67.2035 30.0018 67.0939 30.1494C66.9844 30.297 66.8416 30.428 66.6654 30.5422C66.4892 30.6565 66.2796 30.747 66.0368 30.8137C65.7939 30.8803 65.5011 30.9137 65.1582 30.9137C64.7201 30.9137 64.313 30.8351 63.9368 30.678C63.5606 30.5208 63.232 30.2875 62.9511 29.978C62.6701 29.6684 62.4511 29.2899 62.2939 28.8422C62.1368 28.3946 62.0582 27.8803 62.0582 27.2994V27.0422C62.0582 26.4708 62.1416 25.9613 62.3082 25.5137C62.4749 25.0661 62.7035 24.6875 62.9939 24.378C63.2844 24.0684 63.6225 23.8327 64.0082 23.6708C64.3939 23.5089 64.8011 23.428 65.2296 23.428C65.8011 23.428 66.2535 23.5351 66.5868 23.7494C66.9201 23.9637 67.182 24.2661 67.3725 24.6565H67.6296V23.628H69.4296V32.4565C69.4296 32.7803 69.3273 33.047 69.1225 33.2565ZM65.7439 29.1994C65.182 29.1994 64.7273 29.0256 64.3796 28.678C64.032 28.3303 63.8582 27.8565 63.8582 27.2565V27.0851C63.8582 26.4851 64.032 26.0113 64.3796 25.6637C64.7273 25.3161 65.182 25.1422 65.7439 25.1422C66.3058 25.1422 66.7606 25.3208 67.1082 25.678C67.4558 26.0351 67.6296 26.5041 67.6296 27.0851V27.2565C67.6296 27.8375 67.4558 28.3065 67.1082 28.6637C66.7606 29.0208 66.3058 29.1994 65.7439 29.1994ZM77.2347 28.9994V30.7137H70.6348V28.9994H73.1205V22.428H70.7205V20.7137H74.9205V28.9994H77.2347ZM82.1113 30.9137C82.5779 30.9137 82.9851 30.8613 83.3327 30.7565C83.6803 30.6518 83.9756 30.5184 84.2184 30.3565C84.4613 30.1946 84.6589 30.0161 84.8113 29.8208C84.9637 29.6256 85.0827 29.4375 85.1684 29.2565L83.6256 28.3994C83.5208 28.6184 83.3494 28.8065 83.1113 28.9637C82.8732 29.1208 82.5303 29.1994 82.0827 29.1994C81.8541 29.1994 81.6375 29.1637 81.4327 29.0922C81.2279 29.0208 81.047 28.9208 80.8899 28.7922C80.7327 28.6637 80.6089 28.5113 80.5184 28.3351C80.4279 28.1589 80.3779 27.9661 80.3684 27.7565H85.5684V26.7994C85.5684 26.428 85.5018 26.0446 85.3684 25.6494C85.2351 25.2541 85.0256 24.8922 84.7399 24.5637C84.4541 24.2351 84.0922 23.9637 83.6541 23.7494C83.216 23.5351 82.6922 23.428 82.0827 23.428C81.5875 23.428 81.1232 23.5161 80.6898 23.6922C80.2565 23.8684 79.8779 24.1137 79.5541 24.428C79.2303 24.7422 78.9756 25.1232 78.7899 25.5708C78.6041 26.0184 78.5113 26.5137 78.5113 27.0565V27.1422C78.5113 27.7327 78.5994 28.2613 78.7756 28.728C78.9518 29.1946 79.1994 29.5899 79.5184 29.9137C79.8375 30.2375 80.216 30.4851 80.6541 30.6565C81.0922 30.828 81.5779 30.9137 82.1113 30.9137ZM80.397 26.2137H83.7399C83.6827 25.8803 83.5041 25.6041 83.2041 25.3851C82.9041 25.1661 82.5256 25.0565 82.0684 25.0565C81.6113 25.0565 81.2399 25.1732 80.9541 25.4065C80.6684 25.6399 80.4827 25.9089 80.397 26.2137ZM88.6878 30.7137V26.9422H90.7164C91.2307 26.9422 91.6783 26.8565 92.0592 26.6851C92.4402 26.5137 92.7569 26.2875 93.0092 26.0065C93.2616 25.7256 93.4521 25.4065 93.5807 25.0494C93.7092 24.6922 93.7735 24.328 93.7735 23.9565V23.6137C93.7735 23.2518 93.7092 22.897 93.5807 22.5494C93.4521 22.2018 93.2616 21.8922 93.0092 21.6208C92.7569 21.3494 92.4402 21.1303 92.0592 20.9637C91.6783 20.797 91.2307 20.7137 90.7164 20.7137H86.8021V30.7137H88.6878ZM88.6878 25.1422H90.5307C90.9497 25.1422 91.2807 25.028 91.5235 24.7994C91.7664 24.5708 91.8878 24.2756 91.8878 23.9137V23.7422C91.8878 23.3803 91.7664 23.0851 91.5235 22.8565C91.2807 22.628 90.9497 22.5137 90.5307 22.5137H88.6878V25.1422ZM101.55 30.7137V28.9994H99.2358V20.7137H95.0358V22.428H97.4358V28.9994H94.9501V30.7137H101.55ZM106.884 30.6351C106.541 30.8208 106.141 30.9137 105.684 30.9137C105.255 30.9137 104.853 30.8327 104.477 30.6708C104.1 30.5089 103.769 30.2708 103.484 29.9565C103.198 29.6422 102.972 29.2613 102.805 28.8137C102.638 28.3661 102.555 27.8565 102.555 27.2851V27.0565C102.555 26.4946 102.636 25.9899 102.798 25.5422C102.96 25.0946 103.179 24.7137 103.455 24.3994C103.731 24.0851 104.053 23.8446 104.419 23.678C104.786 23.5113 105.179 23.428 105.598 23.428C106.103 23.428 106.51 23.5137 106.819 23.6851C107.129 23.8565 107.374 24.1232 107.555 24.4851H107.812V23.628H109.612V28.5708C109.612 28.8565 109.741 28.9994 109.998 28.9994H110.269V30.7137H109.041C108.717 30.7137 108.453 30.6184 108.248 30.428C108.043 30.2375 107.941 29.9899 107.941 29.6851H107.684C107.493 30.1327 107.227 30.4494 106.884 30.6351ZM106.084 29.1994C105.56 29.1994 105.141 29.0256 104.827 28.678C104.512 28.3303 104.355 27.8565 104.355 27.2565V27.0851C104.355 26.4851 104.512 26.0113 104.827 25.6637C105.141 25.3161 105.56 25.1422 106.084 25.1422C106.608 25.1422 107.027 25.3161 107.341 25.6637C107.655 26.0113 107.812 26.4851 107.812 27.0851V27.2565C107.812 27.8565 107.655 28.3303 107.341 28.678C107.027 29.0256 106.608 29.1994 106.084 29.1994ZM117.496 33.2565C117.291 33.4661 117.027 33.5708 116.703 33.5708H112.489V31.8565H115.617C115.875 31.8565 116.003 31.7137 116.003 31.428V29.6851H115.746C115.432 30.5041 114.756 30.9137 113.717 30.9137C113.365 30.9137 113.036 30.8565 112.732 30.7422C112.427 30.628 112.16 30.4518 111.932 30.2137C111.703 29.9756 111.525 29.678 111.396 29.3208C111.267 28.9637 111.203 28.5422 111.203 28.0565V23.628H113.003V27.6851C113.003 28.1899 113.122 28.5827 113.36 28.8637C113.598 29.1446 113.955 29.2851 114.432 29.2851C114.975 29.2851 115.372 29.1113 115.625 28.7637C115.877 28.4161 116.003 27.9422 116.003 27.3422V23.628H117.803V32.4565C117.803 32.7803 117.701 33.047 117.496 33.2565Z" fill="#495567"/>
<path fill-rule="evenodd" clip-rule="evenodd" d="M55.6172 9.65695C55.7077 9.65695 55.7946 9.63909 55.8779 9.60338C55.9613 9.56766 56.0339 9.52004 56.0958 9.46052C56.1577 9.401 56.2065 9.32957 56.2422 9.24623C56.2779 9.1629 56.2958 9.07361 56.2958 8.97838C56.2958 8.88314 56.2779 8.79385 56.2422 8.71052C56.2065 8.62719 56.1577 8.55576 56.0958 8.49623C56.0339 8.43671 55.9613 8.38909 55.8779 8.35338C55.7946 8.31766 55.7077 8.2998 55.6172 8.2998C55.522 8.2998 55.4339 8.31766 55.3529 8.35338C55.272 8.38909 55.2006 8.43671 55.1387 8.49623C55.0768 8.55576 55.0279 8.62719 54.9922 8.71052C54.9565 8.79385 54.9387 8.88314 54.9387 8.97838C54.9387 9.07361 54.9565 9.1629 54.9922 9.24623C55.0279 9.32957 55.0768 9.401 55.1387 9.46052C55.2006 9.52004 55.272 9.56766 55.3529 9.60338C55.4339 9.63909 55.522 9.65695 55.6172 9.65695ZM39.8285 13.4819C39.6666 13.6081 39.4237 13.6712 39.0999 13.6712C38.8713 13.6712 38.657 13.6284 38.457 13.5427C38.257 13.4569 38.0832 13.3296 37.9356 13.1605C37.788 12.9915 37.6713 12.7819 37.5856 12.5319C37.4999 12.2819 37.457 11.9903 37.457 11.6569V10.4855C37.457 10.1617 37.5035 9.8748 37.5963 9.6248C37.6892 9.3748 37.8177 9.16409 37.982 8.99266C38.1463 8.82123 38.3427 8.69147 38.5713 8.60338C38.7999 8.51528 39.0523 8.47123 39.3285 8.47123C39.6142 8.47123 39.8689 8.51766 40.0927 8.61052C40.3166 8.70338 40.507 8.83195 40.6642 8.99623C40.8213 9.16052 40.9404 9.35338 41.0213 9.5748C41.1023 9.79623 41.1427 10.0331 41.1427 10.2855V10.3712H40.1999V10.2855C40.1999 9.98552 40.1225 9.75814 39.9677 9.60338C39.813 9.44861 39.5951 9.37123 39.3142 9.37123C39.0475 9.37123 38.8285 9.46052 38.657 9.63909C38.4856 9.81766 38.3999 10.1236 38.3999 10.5569V11.6141C38.3999 12.3855 38.7142 12.7712 39.3427 12.7712C39.6237 12.7712 39.8368 12.6962 39.982 12.5462C40.1273 12.3962 40.1999 12.195 40.1999 11.9427H38.9999V11.0427H41.1427V13.5712H40.2856V13.0141H40.157C40.0999 13.1998 39.9904 13.3558 39.8285 13.4819ZM44.0274 13.5927C43.8536 13.645 43.6501 13.6712 43.4167 13.6712C43.1501 13.6712 42.9072 13.6284 42.6882 13.5427C42.4691 13.4569 42.2798 13.3331 42.1203 13.1712C41.9608 13.0093 41.837 12.8117 41.7489 12.5784C41.6608 12.345 41.6167 12.0808 41.6167 11.7855V11.7427C41.6167 11.4712 41.6632 11.2236 41.756 10.9998C41.8489 10.776 41.9762 10.5855 42.1382 10.4284C42.3001 10.2712 42.4893 10.1486 42.706 10.0605C42.9227 9.97242 43.1548 9.92838 43.4024 9.92838C43.7072 9.92838 43.9691 9.98195 44.1882 10.0891C44.4072 10.1962 44.5882 10.3319 44.731 10.4962C44.8739 10.6605 44.9786 10.8415 45.0453 11.0391C45.112 11.2367 45.1453 11.4284 45.1453 11.6141V12.0927H42.5453C42.5501 12.1974 42.5751 12.2939 42.6203 12.3819C42.6655 12.47 42.7274 12.5462 42.806 12.6105C42.8846 12.6748 42.9751 12.7248 43.0774 12.7605C43.1798 12.7962 43.2882 12.8141 43.4024 12.8141C43.6262 12.8141 43.7977 12.7748 43.9167 12.6962C44.0358 12.6177 44.1215 12.5236 44.1739 12.4141L44.9453 12.8427C44.9024 12.9331 44.8429 13.0272 44.7667 13.1248C44.6905 13.2224 44.5917 13.3117 44.4703 13.3927C44.3489 13.4736 44.2012 13.5403 44.0274 13.5927ZM44.231 11.3212H42.5596C42.6024 11.1689 42.6953 11.0343 42.8382 10.9177C42.981 10.801 43.1667 10.7427 43.3953 10.7427C43.6239 10.7427 43.8132 10.7974 43.9632 10.9069C44.1132 11.0165 44.2024 11.1546 44.231 11.3212ZM48.805 12.7141V13.5712H47.305C47.1431 13.5712 47.0109 13.5189 46.9086 13.4141C46.8062 13.3093 46.755 13.176 46.755 13.0141V10.8855H45.705V10.0284H46.755V8.57123H47.655V10.0284H48.9336V10.8855H47.655V12.4998C47.655 12.6427 47.7193 12.7141 47.8478 12.7141H48.805ZM57.103 12.7141V13.5712H53.9744V12.7141H55.1744V10.8855H54.0601V10.0284H56.0744V12.7141H57.103ZM60.9626 13.5712V12.7141H60.0055C59.8769 12.7141 59.8126 12.6427 59.8126 12.4998V10.8855H61.0912V10.0284H59.8126V8.57123H58.9126V10.0284H57.8626V10.8855H58.9126V13.0141C58.9126 13.176 58.9638 13.3093 59.0662 13.4141C59.1686 13.5189 59.3007 13.5712 59.4626 13.5712H60.9626ZM68.3927 13.5498C68.1713 13.6308 67.9392 13.6712 67.6963 13.6712C67.4535 13.6712 67.2213 13.6308 66.9999 13.5498C66.7785 13.4689 66.582 13.351 66.4106 13.1962C66.2392 13.0415 66.1035 12.851 66.0035 12.6248C65.9035 12.3986 65.8535 12.1379 65.8535 11.8427V11.7569C65.8535 11.4665 65.9035 11.2081 66.0035 10.9819C66.1035 10.7558 66.2392 10.5641 66.4106 10.4069C66.582 10.2498 66.7785 10.1308 66.9999 10.0498C67.2213 9.96885 67.4535 9.92838 67.6963 9.92838C67.9392 9.92838 68.1713 9.96885 68.3927 10.0498C68.6142 10.1308 68.8106 10.2498 68.982 10.4069C69.1535 10.5641 69.2892 10.7558 69.3892 10.9819C69.4892 11.2081 69.5392 11.4665 69.5392 11.7569V11.8427C69.5392 12.1379 69.4892 12.3986 69.3892 12.6248C69.2892 12.851 69.1535 13.0415 68.982 13.1962C68.8106 13.351 68.6142 13.4689 68.3927 13.5498ZM67.6963 12.8141C67.5677 12.8141 67.4463 12.7927 67.332 12.7498C67.2177 12.7069 67.1177 12.645 67.032 12.5641C66.9463 12.4831 66.8785 12.3843 66.8285 12.2677C66.7785 12.151 66.7535 12.0189 66.7535 11.8712V11.7284C66.7535 11.5808 66.7785 11.4486 66.8285 11.3319C66.8785 11.2153 66.9463 11.1165 67.032 11.0355C67.1177 10.9546 67.2177 10.8927 67.332 10.8498C67.4463 10.8069 67.5677 10.7855 67.6963 10.7855C67.8249 10.7855 67.9463 10.8069 68.0606 10.8498C68.1749 10.8927 68.2749 10.9546 68.3606 11.0355C68.4463 11.1165 68.5142 11.2153 68.5642 11.3319C68.6142 11.4486 68.6392 11.5808 68.6392 11.7284V11.8712C68.6392 12.0189 68.6142 12.151 68.5642 12.2677C68.5142 12.3843 68.4463 12.4831 68.3606 12.5641C68.2749 12.645 68.1749 12.7069 68.0606 12.7498C67.9463 12.7927 67.8249 12.8141 67.6963 12.8141ZM71.0203 11.7284V13.5712H70.1203V10.0284H71.0203V10.5569H71.1489C71.2298 10.3569 71.3608 10.2022 71.5417 10.0927C71.7227 9.98314 71.9346 9.92838 72.1774 9.92838C72.3489 9.92838 72.5096 9.95576 72.6596 10.0105C72.8096 10.0653 72.9417 10.1498 73.056 10.2641C73.1703 10.3784 73.2596 10.5236 73.3239 10.6998C73.3882 10.876 73.4203 11.0855 73.4203 11.3284V13.5712H72.5203V11.5569C72.5203 11.3046 72.4596 11.1058 72.3382 10.9605C72.2167 10.8153 72.0417 10.7427 71.8132 10.7427C71.5465 10.7427 71.3477 10.8319 71.2167 11.0105C71.0858 11.1891 71.0203 11.4284 71.0203 11.7284Z" fill="#495567"/>
<path fill-rule="evenodd" clip-rule="evenodd" d="M12.3946 10.1694C12.9123 9.91976 13.5059 9.94657 14.0039 10.2464L23.9124 16.0164L21.0744 18.8677L12.3946 10.1694ZM11.4287 11.7296C11.4287 11.4641 11.4876 11.2062 11.5971 10.9744L20.275 19.6708L11.5986 28.3884C11.488 28.1614 11.4287 27.9073 11.4287 27.6407V11.7296ZM21.0756 20.4728L12.4097 29.1798C12.6397 29.2863 12.8844 29.3327 13.1287 29.3327C13.4304 29.3327 13.7313 29.2606 14.004 29.0967L23.9143 23.318L21.0756 20.4728ZM27.6756 18.2076C27.679 18.2095 27.6827 18.2118 27.6861 18.214C28.1978 18.5244 28.5033 19.0674 28.5033 19.6663C28.5033 20.2651 28.1978 20.8081 27.6861 21.1189L24.9263 22.7278L21.8746 19.6697L24.9244 16.6055L27.6756 18.2076Z" fill="#495567"/>
</svg>
