<svg xmlns="http://www.w3.org/2000/svg" width="56" height="56" fill="none" viewBox="0 0 56 56"><circle cx="28" cy="28" r="28" fill="#fcb72b"/><path fill="#495567" d="M25.667 16.334c.859 0 1.555.696 1.555 1.555v6.308l1.215.303H31.5a.39.39 0 0 1 .39.39v1.555a.39.39 0 0 1-.39.389h-3.11a.4.4 0 0 1-.096-.012l-1.072-.268v1.057H31.5a.39.39 0 0 1 .39.39v4.277c.643 0 1.166.523 1.166 1.167v.389h1.166V23.425l-.629-1.259H31.5a.39.39 0 0 1-.39-.388v-1.556a.39.39 0 0 1 .39-.389h2.334a.39.39 0 0 1 .388.39v1.463l.63 1.259h3.649c.214 0 .388.174.388.389v3.11a.39.39 0 0 1-.389.39h-1.067l2.224 9.634a.39.39 0 0 1-.38.477h-.388a2.722 2.722 0 0 1-5.444 0h-7a2.722 2.722 0 0 1-5.445 0h-4.278a.39.39 0 0 1-.389-.389v-1.555a.39.39 0 0 1 .39-.39h1.944v-.777H17.5a.39.39 0 0 1-.39-.39V31.89a.39.39 0 0 1 .39-.389h1.198a2.72 2.72 0 0 1 2.691-2.334h1.167v-3.888h-.778v1.167c0 .644-.523 1.166-1.167 1.166h-3.889a.389.389 0 0 1-.274-.663l.891-.892-.891-.892a.389.389 0 0 1 .274-.664h2.723v-1.166c0-.645.522-1.167 1.166-1.168h1.945V17.89c0-.859.696-1.555 1.555-1.555zm-3.89 20.61a1.947 1.947 0 0 0 1.945 1.945 1.947 1.947 0 0 0 1.944-1.944h-.777a1.167 1.167 0 0 1-2.333 0zm12.445 0a1.947 1.947 0 0 0 1.944 1.945 1.947 1.947 0 0 0 1.945-1.944h-.777a1.166 1.166 0 0 1-2.334 0zm-10.888 0a.389.389 0 0 0 .777 0zm12.444 0a.39.39 0 0 0 .778 0zm-18.667-.778h1.555v-.777h-1.555zm4.278-6.221a1.947 1.947 0 0 0-1.944 1.944v4.278h.777v-3.89c0-.643.523-1.166 1.167-1.166h4.667c.644 0 1.166.523 1.166 1.167v3.889H28v-4.278a1.947 1.947 0 0 0-1.944-1.944zm0 1.944a.39.39 0 0 0-.389.389v3.889h5.445v-3.89a.39.39 0 0 0-.389-.388zm7.389 4.278h5.444V34.61h-5.444zm6.223-3.5h.777v.778H35v2.721h3.787l-2.155-9.332H35zm-7.043-2.722c.524.51.82 1.212.82 1.944v1.945h.778v-3.89zm2.376 3.889h1.944v-.39a.39.39 0 0 0-.389-.388h-1.555zm-7.778-.39h-.778v-.778h.778zm1.555 0h-.777v-.778h.777zm1.555 0h-.777v-.778h.777zm11.668 0h-.778v-.778h.778zm-19.445-.388h.777v-.778h-.777zm5.445-3.89h6.61a.39.39 0 0 1 .39.39v2.722h.777v-3.889h-7.777zm0-1.555h3.11V26.36l-1.26-.316a.39.39 0 0 1-.295-.378v-1.555a.388.388 0 0 1 .484-.377l1.072.268v-.668h-3.111zm-5.17-1.83a.39.39 0 0 1 0 .55l-.502.503h2.949a.39.39 0 0 0 .39-.39v-1.166h-3.34zm14.892-1.28a1.166 1.166 0 1 1 0 2.332 1.166 1.166 0 0 1 0-2.332m-7.39.862 2.771.693h2.674v-.778h-2.722a.4.4 0 0 1-.095-.012l-2.628-.656zm7.39-.085a.39.39 0 1 0 0 .78.39.39 0 0 0 0-.78m1.945.778h1.555v-2.334h-1.555zm2.333 0h.777v-2.334h-.777zM20.61 22.945a.39.39 0 0 0-.389.389V24.5h2.334v-1.555zm2.723-1.267v.878h3.11v-1.811zm-1.556-.289H17.11v-.778h4.667zm10.111 0h1.556v-.778h-1.556zm-6.611-1.555a.39.39 0 0 1-.389.388h-1.555v.645l3.11-.934v-.877h-1.166zm-3.889 0h-5.055v-.778h5.055zm2.722-2.723a.78.78 0 0 0-.777.778v1.556H24.5v-.779c0-.214.174-.388.39-.388h1.555v-.389a.78.78 0 0 0-.779-.778z"/></svg>