<svg width="56" height="56" viewBox="0 0 56 56" fill="none" xmlns="http://www.w3.org/2000/svg">
<circle cx="28" cy="28" r="28" fill="#FCB72B"/>
<path d="M31.3833 14C32.6706 14.0016 33.7137 15.0448 33.7153 16.332V30.1318L36.8433 33.2607L36.1841 33.9199L31.5806 29.3164C31.0269 28.7391 30.1273 28.6694 29.4917 29.1553C29.1618 29.426 28.9612 29.8234 28.9399 30.25C28.9188 30.6764 29.0796 31.0924 29.3813 31.3945L32.646 34.6592C32.8029 34.8163 32.8282 35.0629 32.7046 35.248C31.5371 36.9949 30.9143 39.0494 30.9165 41.1504V41.9854H19.2563C17.9692 41.9837 16.9261 40.9405 16.9243 39.6533V16.332C16.926 15.0448 17.9691 14.0017 19.2563 14H31.3833ZM37.9517 27.4727C38.8178 28.2689 39.3108 29.391 39.312 30.5674V41.9854H38.3794V30.5674C38.3792 29.6526 37.9952 28.7797 37.3218 28.1602L34.4614 25.5381L35.0903 24.8506L37.9517 27.4727ZM17.8569 37.3213H29.5181V38.2539H17.8569V39.6533C17.8571 40.4258 18.4839 41.0517 19.2563 41.0518H29.9868C30.0018 38.9309 30.6019 36.8549 31.7202 35.0527L28.7212 32.0537C28.2334 31.5656 27.9747 30.8942 28.0083 30.2051C28.042 29.5158 28.3651 28.8725 28.8979 28.4346C29.9054 27.646 31.3449 27.7421 32.2397 28.6562L32.7827 29.1982V17.7314H17.8569V37.3213ZM25.7866 40.1191H24.853V39.1865H25.7866V40.1191ZM21.5884 32.6562C22.1037 32.6562 22.521 33.0746 22.521 33.5898V35.4551C22.521 35.9704 22.1037 36.3877 21.5884 36.3877H19.7231C19.2079 36.3877 18.7896 35.9704 18.7896 35.4551V33.5898C18.7896 33.0746 19.2079 32.6562 19.7231 32.6562H21.5884ZM26.2524 32.6562C26.7677 32.6562 27.1851 33.0746 27.1851 33.5898V35.4551C27.1851 35.9704 26.7677 36.3877 26.2524 36.3877H24.3872C23.8719 36.3877 23.4546 35.9704 23.4546 35.4551V33.5898C23.4546 33.0746 23.8719 32.6562 24.3872 32.6562H26.2524ZM19.7231 35.4551H21.5884V33.5898H19.7231V35.4551ZM24.3872 35.4551H26.2524V33.5898H24.3872V35.4551ZM21.5884 27.9922C22.1037 27.9922 22.521 28.4105 22.521 28.9258V30.791C22.521 31.3063 22.1037 31.7236 21.5884 31.7236H19.7231C19.2079 31.7236 18.7896 31.3063 18.7896 30.791V28.9258C18.7896 28.4105 19.2079 27.9922 19.7231 27.9922H21.5884ZM26.2524 27.9922C26.7677 27.9922 27.1851 28.4105 27.1851 28.9258V30.791C27.1851 31.3063 26.7677 31.7236 26.2524 31.7236H24.3872C23.8719 31.7236 23.4546 31.3063 23.4546 30.791V28.9258C23.4546 28.4105 23.8719 27.9922 24.3872 27.9922H26.2524ZM19.7231 30.791H21.5884V28.9258H19.7231V30.791ZM24.3872 30.791H26.2524V28.9258H24.3872V30.791ZM21.5884 23.3281C22.1035 23.3281 22.5208 23.7457 22.521 24.2607V26.127C22.5209 26.6422 22.1036 27.0596 21.5884 27.0596H19.7231C19.2079 27.0596 18.7896 26.6422 18.7896 26.127V24.2607C18.7898 23.7457 19.208 23.3281 19.7231 23.3281H21.5884ZM26.2524 23.3281C26.7676 23.3281 27.1848 23.7457 27.1851 24.2607V26.127C27.185 26.6422 26.7677 27.0596 26.2524 27.0596H24.3872C23.872 27.0596 23.4546 26.6422 23.4546 26.127V24.2607C23.4548 23.7457 23.8721 23.3281 24.3872 23.3281H26.2524ZM30.9165 23.3281C31.4316 23.3281 31.8499 23.7457 31.8501 24.2607V26.127C31.8501 26.6422 31.4318 27.0596 30.9165 27.0596H29.0513C28.536 27.0596 28.1187 26.6422 28.1187 26.127V24.2607C28.1189 23.7457 28.5361 23.3281 29.0513 23.3281H30.9165ZM19.7231 26.127H21.5884V24.2607H19.7231V26.127ZM24.3872 26.127H26.2524V24.2607H24.3872V26.127ZM29.0513 26.127H30.9165V24.2607H29.0513V26.127ZM21.5884 18.6641C22.1035 18.6641 22.5208 19.0816 22.521 19.5967V21.4629C22.5209 21.9781 22.1036 22.3955 21.5884 22.3955H19.7231C19.2079 22.3955 18.7897 21.9781 18.7896 21.4629V19.5967C18.7897 19.0816 19.208 18.6641 19.7231 18.6641H21.5884ZM26.2524 18.6641C26.7676 18.6641 27.1849 19.0816 27.1851 19.5967V21.4629C27.1849 21.9781 26.7676 22.3955 26.2524 22.3955H24.3872C23.872 22.3955 23.4547 21.9781 23.4546 21.4629V19.5967C23.4548 19.0816 23.872 18.6641 24.3872 18.6641H26.2524ZM30.9165 18.6641C31.4317 18.6641 31.8499 19.0816 31.8501 19.5967V21.4629C31.85 21.9781 31.4317 22.3955 30.9165 22.3955H29.0513C28.5361 22.3955 28.1188 21.9781 28.1187 21.4629V19.5967C28.1188 19.0816 28.5361 18.6641 29.0513 18.6641H30.9165ZM19.7231 21.4629H21.5884V19.5967H19.7231V21.4629ZM24.3872 21.4629H26.2524V19.5967H24.3872V21.4629ZM29.0513 21.4629H30.9165V19.5967H29.0513V21.4629ZM19.2563 14.9326C18.4838 14.9326 17.857 15.5595 17.8569 16.332V16.7988H32.7827V16.332C32.7827 15.5594 32.1559 14.9326 31.3833 14.9326H19.2563Z" fill="#495567"/>
</svg>
